<?xml version="1.0" encoding="UTF-8" ?>
<!DOCTYPE svg PUBLIC "-//W3C//DTD SVG 1.1//EN" "http://www.w3.org/Graphics/SVG/1.1/DTD/svg11.dtd">
<svg width="360pt" height="78pt" viewBox="0 0 360 78" version="1.1" xmlns="http://www.w3.org/2000/svg">
<g id="#01babdff">
<path fill="#01babd" opacity="1.00" d=" M 180.20 0.00 L 182.97 0.00 C 190.06 1.52 195.85 6.22 201.27 10.77 C 204.09 13.41 207.37 16.16 208.27 20.10 C 208.73 23.79 203.35 25.22 201.01 22.93 C 195.87 18.13 191.52 12.32 185.18 8.98 C 186.41 12.09 188.04 15.08 188.82 18.35 C 189.19 20.08 189.23 22.42 187.46 23.41 C 184.60 24.85 181.32 23.72 178.65 22.40 C 173.67 19.87 169.07 16.69 164.31 13.80 C 165.12 16.66 167.39 19.89 165.76 22.84 C 163.84 24.31 161.25 23.36 159.18 22.77 C 154.11 20.90 149.37 18.24 144.51 15.91 C 145.73 18.40 148.62 21.16 147.15 24.09 C 141.80 25.53 136.33 22.75 131.58 20.45 C 135.76 20.82 139.89 21.59 144.06 22.03 C 142.43 19.75 140.44 17.62 139.50 14.92 C 138.79 12.78 141.01 11.20 142.97 11.54 C 148.73 12.06 153.91 14.97 159.12 17.26 C 157.97 14.37 155.95 11.31 156.88 8.08 C 158.17 6.06 160.95 6.62 162.92 7.05 C 169.03 8.66 174.44 12.08 179.90 15.15 C 178.19 12.28 176.03 9.45 175.68 6.03 C 175.40 3.17 177.66 0.86 180.20 0.00 Z" />
</g>
<g id="#f6931eff">
<path fill="#f6931e" opacity="1.00" d=" M 219.31 5.47 C 225.78 2.10 234.42 7.70 233.78 15.00 C 233.79 22.56 224.22 27.33 218.10 23.00 C 211.50 19.21 212.27 8.33 219.31 5.47 Z" />
</g>
<g id="#005aaaff">
<path fill="#005aaa" opacity="1.00" d=" M 268.00 29.00 C 295.35 29.00 322.71 29.00 350.06 29.00 C 355.01 28.81 359.10 33.00 360.00 37.66 L 360.00 69.03 C 359.27 73.56 355.62 77.14 351.14 78.00 L 268.00 78.00 C 268.00 61.67 268.00 45.33 268.00 29.00 M 277.62 40.82 C 280.96 47.24 284.34 53.63 287.69 60.05 C 286.47 62.49 285.27 64.93 284.07 67.37 C 286.90 67.37 289.73 67.38 292.56 67.38 C 296.46 58.90 300.29 50.38 304.18 41.88 C 304.18 43.67 304.18 45.46 304.19 47.25 C 306.14 47.25 308.10 47.25 310.05 47.25 C 310.07 53.96 310.05 60.67 310.06 67.37 C 312.73 67.38 315.39 67.38 318.06 67.37 C 318.07 60.66 318.05 53.96 318.07 47.25 C 320.02 47.25 321.98 47.25 323.94 47.25 C 323.93 45.10 323.93 42.96 323.94 40.81 C 314.64 40.81 305.33 40.81 296.03 40.81 C 294.65 44.32 293.31 47.85 291.92 51.36 C 290.23 47.86 288.59 44.33 286.93 40.81 C 283.83 40.81 280.72 40.81 277.62 40.82 M 330.34 41.19 C 327.18 50.05 323.97 58.89 320.81 67.75 C 323.64 67.76 326.48 67.75 329.31 67.74 C 329.81 66.22 330.31 64.70 330.81 63.19 C 333.69 63.18 336.58 63.19 339.47 63.20 C 339.95 64.71 340.44 66.23 340.92 67.75 C 343.76 67.75 346.59 67.75 349.43 67.74 C 346.25 58.89 343.10 50.03 339.90 41.18 C 336.71 41.18 333.53 41.18 330.34 41.19 Z" />
<path fill="#005aaa" opacity="1.00" d=" M 43.50 31.72 C 48.89 30.84 54.94 30.43 59.92 33.11 C 64.59 35.92 64.56 42.23 63.91 47.00 C 63.50 51.35 59.82 54.72 55.57 55.28 C 50.53 55.92 44.95 56.29 40.33 53.76 C 35.39 50.74 35.36 44.00 36.20 38.94 C 36.74 35.22 39.91 32.43 43.50 31.72 M 45.40 36.53 C 41.35 37.62 42.43 42.93 42.42 46.08 C 42.25 49.11 45.20 50.89 47.95 50.66 C 51.24 50.71 56.92 51.43 57.49 46.91 C 57.62 43.70 58.68 39.40 55.87 37.04 C 52.62 35.62 48.82 36.10 45.40 36.53 Z" />
<path fill="#005aaa" opacity="1.00" d=" M 237.40 31.61 C 242.39 30.73 247.53 31.02 252.49 31.96 C 252.17 33.61 251.85 35.27 251.54 36.93 C 247.23 36.30 242.77 35.69 238.46 36.60 C 237.04 36.92 236.61 38.51 237.43 39.64 C 241.32 41.29 245.85 40.38 249.69 42.26 C 254.83 44.39 254.18 53.37 248.73 54.69 C 242.95 56.29 236.79 55.87 230.93 54.88 C 231.28 53.20 231.63 51.52 231.98 49.84 C 236.12 50.56 240.37 51.01 244.56 50.39 C 246.32 50.31 247.11 48.51 246.20 47.06 C 241.97 45.26 236.94 46.42 232.91 43.98 C 230.30 42.37 230.21 38.72 231.08 36.11 C 231.97 33.41 234.79 32.07 237.40 31.61 Z" />
<path fill="#005aaa" opacity="1.00" d=" M 0.00 31.69 C 2.79 31.69 5.59 31.69 8.38 31.68 C 11.24 36.26 14.01 40.90 16.54 45.68 C 19.06 40.92 21.81 36.28 24.61 31.68 C 27.26 31.69 29.91 31.69 32.56 31.69 C 32.57 39.54 32.57 47.40 32.56 55.25 C 30.62 55.25 28.69 55.25 26.76 55.24 C 26.74 49.54 26.77 43.84 26.73 38.14 C 23.78 43.07 21.08 48.16 18.50 53.30 C 16.88 53.31 15.25 53.31 13.63 53.32 C 11.14 48.18 8.60 43.05 5.71 38.11 C 5.67 43.82 5.70 49.53 5.69 55.24 C 3.79 55.25 1.90 55.25 0.00 55.25 L 0.00 31.69 Z" />
<path fill="#005aaa" opacity="1.00" d=" M 67.47 49.05 C 67.36 43.27 67.47 37.47 67.44 31.69 C 69.44 31.69 71.44 31.69 73.43 31.69 C 73.53 37.06 73.27 42.43 73.54 47.79 C 73.68 50.53 77.04 50.50 79.07 50.61 C 81.36 50.44 84.54 51.05 85.97 48.80 C 86.63 43.14 86.06 37.39 86.25 31.69 C 88.27 31.69 90.29 31.69 92.31 31.69 C 92.21 37.81 92.53 43.95 92.16 50.06 C 91.90 53.40 88.41 54.91 85.52 55.31 C 80.84 55.94 75.90 56.08 71.36 54.57 C 68.99 53.86 67.37 51.51 67.47 49.05 Z" />
<path fill="#005aaa" opacity="1.00" d=" M 96.31 36.50 C 96.31 34.90 96.32 33.29 96.32 31.69 C 104.48 31.73 112.65 31.58 120.81 31.77 C 116.68 38.62 111.01 44.42 105.76 50.44 C 110.64 50.44 115.51 50.43 120.38 50.44 C 120.37 52.04 120.37 53.64 120.37 55.25 C 111.98 55.22 103.58 55.31 95.19 55.20 C 95.95 52.87 97.86 51.24 99.41 49.43 C 103.10 45.21 106.66 40.88 110.17 36.51 C 105.55 36.50 100.93 36.50 96.31 36.50 Z" />
<path fill="#005aaa" opacity="1.00" d=" M 124.19 31.69 C 131.38 31.68 138.56 31.69 145.75 31.69 C 145.75 33.29 145.75 34.89 145.75 36.50 C 140.57 36.51 135.38 36.50 130.19 36.50 C 130.19 37.87 130.19 39.25 130.19 40.63 C 133.90 40.62 137.60 40.62 141.31 40.63 C 141.31 42.21 141.31 43.79 141.31 45.37 C 137.60 45.37 133.90 45.38 130.19 45.37 C 130.19 47.06 130.19 48.75 130.19 50.43 C 135.37 50.44 140.56 50.43 145.75 50.44 C 145.75 52.04 145.75 53.64 145.75 55.25 C 138.56 55.25 131.38 55.25 124.19 55.25 C 124.18 47.39 124.18 39.54 124.19 31.69 Z" />
<path fill="#005aaa" opacity="1.00" d=" M 149.63 31.69 C 152.35 31.69 155.08 31.69 157.80 31.69 C 162.07 36.95 166.10 42.39 170.00 47.93 C 170.01 42.52 169.99 37.10 170.00 31.69 C 171.98 31.69 173.96 31.69 175.94 31.69 C 175.94 39.54 175.94 47.39 175.94 55.25 C 173.32 55.25 170.71 55.25 168.09 55.25 C 164.16 49.39 159.97 43.71 155.44 38.29 C 155.43 43.94 155.44 49.59 155.43 55.25 C 153.50 55.25 151.56 55.25 149.63 55.25 C 149.62 47.40 149.62 39.54 149.63 31.69 Z" />
<path fill="#005aaa" opacity="1.00" d=" M 180.31 55.25 C 180.31 47.39 180.30 39.54 180.32 31.68 C 182.31 31.69 184.31 31.69 186.31 31.69 C 186.32 39.54 186.32 47.39 186.31 55.25 C 184.31 55.25 182.31 55.25 180.31 55.25 Z" />
<path fill="#005aaa" opacity="1.00" d=" M 191.06 31.69 C 196.37 31.77 201.68 31.49 206.98 31.85 C 210.72 32.08 214.96 33.82 216.21 37.67 C 217.38 41.61 217.39 46.06 215.83 49.90 C 214.39 53.32 210.52 54.68 207.10 55.02 C 201.77 55.48 196.41 55.16 191.06 55.25 C 191.06 47.39 191.06 39.54 191.06 31.69 M 197.06 36.51 C 197.06 41.13 197.06 45.75 197.06 50.37 C 201.14 49.99 206.16 51.53 209.52 48.62 C 210.90 45.49 210.99 41.45 209.63 38.32 C 206.30 35.26 201.17 36.93 197.06 36.51 Z" />
<path fill="#005aaa" opacity="1.00" d=" M 220.63 31.69 C 222.62 31.69 224.62 31.69 226.62 31.68 C 226.63 39.54 226.63 47.40 226.62 55.25 C 224.62 55.25 222.62 55.25 220.63 55.25 C 220.62 47.39 220.62 39.54 220.63 31.69 Z" />
<path fill="#005aaa" opacity="1.00" d=" M 332.31 57.31 C 333.27 54.21 334.22 51.12 335.12 48.01 C 336.05 51.11 337.00 54.21 337.96 57.31 C 336.07 57.31 334.19 57.31 332.31 57.31 Z" />
<path fill="#005aaa" opacity="1.00" d=" M 154.49 62.20 C 159.29 62.18 164.08 62.18 168.88 62.19 C 168.88 62.86 168.88 64.20 168.88 64.87 C 167.04 64.87 165.21 64.88 163.38 64.89 C 163.38 68.30 163.37 71.71 163.37 75.12 C 162.53 75.12 160.85 75.12 160.00 75.13 C 160.00 71.71 160.00 68.30 160.00 64.89 C 158.16 64.88 156.33 64.87 154.49 64.87 C 154.49 64.20 154.49 62.86 154.49 62.20 Z" />
<path fill="#005aaa" opacity="1.00" d=" M 194.24 62.18 C 196.04 62.18 197.85 62.19 199.65 62.19 C 201.40 66.58 203.33 70.91 205.48 75.12 C 204.54 75.12 202.66 75.12 201.72 75.12 C 201.27 74.19 200.81 73.26 200.36 72.33 C 197.94 72.31 195.52 72.31 193.10 72.30 C 192.73 73.24 192.35 74.18 191.98 75.12 C 191.07 75.12 189.24 75.12 188.33 75.12 C 190.07 70.70 192.14 66.43 194.24 62.18 M 194.05 69.68 C 195.77 69.68 197.50 69.68 199.22 69.68 C 198.51 67.90 197.80 66.14 197.02 64.39 C 195.52 65.83 194.84 67.82 194.05 69.68 Z" />
<path fill="#005aaa" opacity="1.00" d=" M 204.61 62.17 C 205.88 62.18 207.15 62.20 208.42 62.21 C 210.09 65.45 211.60 68.76 212.96 72.14 C 214.50 68.87 215.93 65.55 217.25 62.18 C 218.46 62.19 219.67 62.19 220.89 62.20 C 219.13 66.61 217.14 70.92 214.93 75.12 C 213.47 75.13 212.01 75.13 210.55 75.14 C 208.72 70.75 206.80 66.39 204.61 62.17 Z" />
<path fill="#005aaa" opacity="1.00" d=" M 224.00 62.18 C 227.92 62.18 231.84 62.18 235.75 62.19 C 235.76 62.86 235.76 64.20 235.76 64.87 C 232.94 64.88 230.13 64.88 227.31 64.88 C 227.31 65.44 227.31 66.56 227.31 67.11 C 229.33 67.12 231.36 67.13 233.38 67.14 C 233.38 67.79 233.38 69.09 233.38 69.74 C 231.36 69.75 229.34 69.75 227.32 69.76 C 227.32 70.67 227.31 71.58 227.31 72.49 C 230.12 72.50 232.94 72.50 235.75 72.50 C 235.75 73.16 235.75 74.47 235.75 75.12 C 231.83 75.13 227.92 75.13 224.00 75.12 C 224.00 70.81 224.00 66.50 224.00 62.18 Z" />
<path fill="#005aaa" opacity="1.00" d=" M 240.31 62.19 C 241.41 62.19 242.52 62.19 243.62 62.19 C 243.62 65.60 243.63 69.02 243.63 72.43 C 246.11 72.44 248.58 72.44 251.07 72.44 C 251.06 73.11 251.06 74.45 251.05 75.12 C 247.47 75.13 243.89 75.13 240.31 75.12 C 240.31 70.81 240.31 66.50 240.31 62.19 Z" />
<path fill="#005aaa" opacity="1.00" d=" M 171.81 62.20 C 175.53 62.31 179.32 61.81 182.99 62.56 C 186.38 63.95 185.36 69.54 181.64 69.75 C 183.39 71.38 184.94 73.21 186.40 75.11 C 184.95 75.12 183.50 75.12 182.06 75.12 C 180.27 72.89 178.43 70.02 175.15 70.42 C 175.13 71.99 175.12 73.56 175.11 75.12 C 174.29 75.12 172.64 75.12 171.82 75.12 C 171.81 70.81 171.81 66.50 171.81 62.20 M 175.13 64.79 C 175.13 65.62 175.13 67.27 175.13 68.10 C 177.16 68.05 179.20 68.00 181.24 67.88 C 181.17 67.21 181.03 65.86 180.96 65.18 C 179.07 64.60 177.07 64.85 175.13 64.79 Z" />
</g>
<g id="#ffffffff">
<path fill="#ffffff" opacity="1.00" d=" M 277.62 40.82 C 280.72 40.81 283.83 40.81 286.93 40.81 C 288.59 44.33 290.23 47.86 291.92 51.36 C 293.31 47.85 294.65 44.32 296.03 40.81 C 305.33 40.81 314.64 40.81 323.94 40.81 C 323.93 42.96 323.93 45.10 323.94 47.25 C 321.98 47.25 320.02 47.25 318.07 47.25 C 318.05 53.96 318.07 60.66 318.06 67.37 C 315.39 67.38 312.73 67.38 310.06 67.37 C 310.05 60.67 310.07 53.96 310.05 47.25 C 308.10 47.25 306.14 47.25 304.19 47.25 C 304.18 45.46 304.18 43.67 304.18 41.88 C 300.29 50.38 296.46 58.90 292.56 67.38 C 289.73 67.38 286.90 67.37 284.07 67.37 C 285.27 64.93 286.47 62.49 287.69 60.05 C 284.34 53.63 280.96 47.24 277.62 40.82 Z" />
<path fill="#ffffff" opacity="1.00" d=" M 330.34 41.19 C 333.53 41.18 336.71 41.18 339.90 41.18 C 343.10 50.03 346.25 58.89 349.43 67.74 C 346.59 67.75 343.76 67.75 340.92 67.75 C 340.44 66.23 339.95 64.71 339.47 63.20 C 336.58 63.19 333.69 63.18 330.81 63.19 C 330.31 64.70 329.81 66.22 329.31 67.74 C 326.48 67.75 323.64 67.76 320.81 67.75 C 323.97 58.89 327.18 50.05 330.34 41.19 M 332.31 57.31 C 334.19 57.31 336.07 57.31 337.96 57.31 C 337.00 54.21 336.05 51.11 335.12 48.01 C 334.22 51.12 333.27 54.21 332.31 57.31 Z" />
</g>
</svg>
