<?xml version="1.0" encoding="UTF-8" ?>
<!DOCTYPE svg PUBLIC "-//W3C//DTD SVG 1.1//EN" "http://www.w3.org/Graphics/SVG/1.1/DTD/svg11.dtd">
<svg width="1110pt" height="336pt" viewBox="0 0 1110 336" version="1.1" xmlns="http://www.w3.org/2000/svg">
<g id="#00353649">
<path fill="#f5f3ec" opacity="0.29" d=" M 791.49 0.00 L 800.45 0.00 C 815.30 3.24 829.33 9.54 842.01 17.88 C 850.37 23.44 859.25 28.53 866.10 35.99 C 849.89 24.30 833.62 12.01 814.59 5.25 C 805.78 1.90 796.20 0.84 786.89 2.32 C 788.41 1.55 789.93 0.74 791.49 0.00 Z" />
</g>
<g id="#01babdff">
<path fill="#f5f3ec" opacity="1.00" d=" M 770.55 20.03 C 772.72 11.95 779.13 5.34 786.89 2.32 C 796.20 0.84 805.78 1.90 814.59 5.25 C 833.62 12.01 849.89 24.30 866.10 35.99 C 877.75 45.21 888.95 55.05 898.85 66.15 C 903.64 71.84 908.22 77.88 911.00 84.85 C 912.48 88.63 913.17 92.93 911.95 96.89 C 910.63 101.15 907.02 104.25 903.12 106.13 C 899.05 108.20 894.33 107.69 889.93 107.56 C 885.16 107.36 881.09 104.42 877.93 101.07 C 861.78 84.92 847.18 67.07 829.00 53.07 C 823.72 49.11 818.50 44.73 812.06 42.83 C 812.50 44.96 813.14 47.06 814.08 49.04 C 820.33 61.72 826.73 74.75 828.38 88.97 C 829.03 95.08 826.99 102.07 821.44 105.37 C 817.50 108.05 812.53 107.71 807.99 107.85 C 802.75 107.92 797.41 107.51 792.56 105.39 C 779.00 100.13 766.75 92.17 754.39 84.62 C 743.13 77.69 732.33 69.91 720.56 63.85 C 723.07 71.57 727.07 78.85 728.38 86.93 C 728.76 91.24 729.08 95.67 728.13 99.92 C 725.94 105.36 719.26 106.95 713.96 106.46 C 698.39 104.56 684.13 97.54 670.34 90.49 C 658.25 85.04 646.77 78.29 634.55 73.15 C 637.54 79.66 642.13 85.29 644.95 91.88 C 646.89 96.22 647.39 101.25 646.32 105.88 C 642.59 111.73 634.89 110.78 628.93 110.49 C 616.40 108.91 604.40 104.67 592.67 100.15 C 587.77 98.16 582.44 96.57 578.71 92.61 C 581.15 92.37 583.63 92.25 586.10 92.47 C 600.45 94.45 614.64 98.19 629.17 98.52 C 629.35 98.15 629.72 97.40 629.90 97.02 C 628.49 94.00 625.97 91.71 624.00 89.07 C 619.83 83.67 615.67 78.16 612.89 71.90 C 611.18 68.23 610.88 63.98 611.79 60.07 C 613.36 55.87 617.62 53.26 621.91 52.63 C 626.86 52.20 631.87 52.49 636.70 53.71 C 657.74 58.39 676.77 68.92 696.57 77.01 C 692.28 65.66 685.24 54.54 686.47 41.92 C 686.54 36.75 690.68 31.87 695.93 31.47 C 702.32 31.12 708.89 31.01 715.10 32.82 C 734.18 38.07 751.65 47.64 768.83 57.23 C 774.92 60.54 780.64 64.54 787.00 67.35 C 781.38 56.68 773.71 46.85 770.71 34.99 C 769.90 30.06 769.94 24.98 770.55 20.03 Z" />
</g>
<g id="#f6931fff">
<path fill="#f5f3ec" opacity="1.00" d=" M 966.71 23.22 C 978.29 19.85 991.19 21.27 1001.64 27.34 C 1011.37 33.18 1019.19 42.54 1022.25 53.57 C 1024.33 59.84 1023.75 66.56 1023.52 73.05 C 1021.62 85.18 1014.56 96.57 1004.20 103.27 C 996.56 108.43 987.23 111.19 978.00 110.65 C 957.24 110.69 938.12 93.69 935.52 73.12 C 935.22 68.08 935.19 63.00 935.64 57.96 C 938.32 41.74 951.02 27.87 966.71 23.22 Z" />
</g>
<g id="#00193048">
<path fill="#f5f3ec" opacity="0.28" d=" M 0.00 141.51 C 6.51 139.66 13.33 140.46 20.00 140.40 C 25.30 140.49 30.61 140.00 35.90 140.49 C 40.39 140.64 41.24 145.95 43.06 149.10 C 40.90 146.42 39.14 141.96 35.03 142.34 C 23.98 142.30 12.92 142.38 1.87 142.35 C 1.59 176.79 1.64 211.23 1.84 245.67 C 9.95 246.35 18.10 246.34 26.21 245.68 C 26.69 220.95 25.87 196.19 26.63 171.47 C 29.42 174.54 31.37 178.21 33.04 181.99 C 31.40 179.86 29.64 177.83 27.90 175.79 C 27.32 192.52 27.83 209.26 27.64 226.00 C 27.45 232.78 28.32 239.63 27.23 246.36 C 18.32 248.25 9.02 247.14 0.00 246.56 L 0.00 141.51 Z" />
<path fill="#f5f3ec" opacity="0.28" d=" M 1105.14 198.95 C 1107.56 202.38 1109.14 206.34 1110.00 210.45 L 1110.00 218.44 C 1108.71 224.29 1107.32 230.53 1103.03 235.00 C 1109.20 224.10 1110.13 210.47 1105.14 198.95 Z" />
<path fill="#f5f3ec" opacity="0.28" d=" M 752.18 276.32 C 763.78 276.28 775.39 276.46 787.00 276.26 C 791.41 276.19 795.97 276.21 800.14 277.88 C 784.35 277.44 768.53 277.72 752.73 277.75 C 752.62 296.56 752.59 315.38 752.74 334.19 C 757.62 334.30 762.50 334.29 767.39 334.31 C 767.38 334.73 767.36 335.58 767.35 336.00 L 752.15 336.00 C 752.06 316.11 751.97 296.21 752.18 276.32 Z" />
<path fill="#f5f3ec" opacity="0.28" d=" M 1051.49 276.51 C 1056.53 276.33 1061.57 276.13 1066.62 276.33 C 1066.64 276.70 1066.69 277.46 1066.71 277.84 C 1062.04 277.61 1057.37 277.64 1052.71 277.80 C 1052.54 296.56 1052.53 315.31 1052.72 334.07 C 1068.02 334.43 1083.36 334.40 1098.67 334.09 C 1098.66 330.33 1098.66 326.58 1098.66 322.83 C 1088.21 322.48 1077.75 322.93 1067.30 322.61 L 1067.15 321.70 C 1078.07 321.62 1089.01 321.24 1099.93 321.94 C 1100.12 326.63 1100.00 331.33 1099.54 336.00 L 1051.77 336.00 C 1051.30 329.68 1051.25 323.33 1051.34 317.00 C 1051.46 303.50 1051.13 290.00 1051.49 276.51 Z" />
<path fill="#f5f3ec" opacity="0.28" d=" M 898.98 282.99 C 903.54 290.10 906.66 297.98 910.22 305.61 C 913.49 313.03 916.76 320.47 919.66 328.05 C 920.46 330.00 921.18 332.02 922.42 333.74 C 926.55 334.70 930.85 334.30 935.07 334.35 C 937.87 334.41 940.80 333.96 943.02 332.08 C 942.39 333.39 941.77 334.69 941.15 336.00 L 922.76 336.00 C 919.50 331.89 917.99 326.79 916.03 322.00 C 910.91 308.75 904.08 296.24 898.98 282.99 Z" />
<path fill="#f5f3ec" opacity="0.28" d=" M 699.80 289.31 C 700.21 289.33 701.04 289.38 701.45 289.40 C 701.53 304.13 701.51 318.86 701.42 333.59 C 706.10 334.44 710.89 334.44 715.57 333.59 C 715.48 318.86 715.46 304.13 715.55 289.40 C 715.96 289.38 716.78 289.33 717.19 289.31 C 717.43 300.20 717.20 311.10 717.38 322.00 C 717.46 326.68 717.12 331.36 716.49 336.00 L 700.66 336.00 C 699.65 331.41 699.55 326.68 699.62 322.00 C 699.79 311.10 699.56 300.20 699.80 289.31 Z" />
<path fill="#f5f3ec" opacity="0.28" d=" M 845.96 322.00 C 849.86 320.91 854.00 321.62 858.00 321.47 C 864.44 321.71 870.94 320.99 877.35 321.77 C 879.76 324.71 880.62 328.52 882.01 331.98 C 880.36 329.18 878.72 326.37 877.25 323.47 C 866.92 323.10 856.58 323.29 846.25 323.34 C 844.61 327.60 843.14 331.95 841.02 336.00 L 825.01 336.00 C 824.92 331.64 826.63 327.63 829.04 324.09 C 827.91 327.41 826.83 330.76 825.75 334.10 C 830.83 333.98 836.37 335.37 841.15 333.21 C 843.05 329.60 843.69 325.43 845.96 322.00 Z" />
<path fill="#f5f3ec" opacity="0.28" d=" M 815.32 332.61 C 815.99 333.72 816.60 334.87 817.28 336.00 L 797.93 336.00 C 797.64 335.57 797.04 334.71 796.75 334.28 C 801.52 334.23 806.30 334.47 811.08 334.25 C 812.66 334.32 814.05 333.48 815.32 332.61 Z" />
<path fill="#f5f3ec" opacity="0.28" d=" M 899.46 332.63 C 900.02 333.73 900.50 334.86 901.02 336.00 L 884.39 336.00 C 884.07 335.49 883.43 334.48 883.10 333.97 C 888.54 334.22 894.43 335.36 899.46 332.63 Z" />
</g>
<g id="#005aaaff">
<path fill="#f5f3ec" opacity="1.00" d=" M 202.38 140.18 C 210.18 138.82 218.13 139.62 226.00 139.39 C 232.71 139.13 239.37 140.20 245.96 141.32 C 257.41 143.72 269.16 149.21 275.31 159.65 C 282.84 172.34 282.97 187.72 282.37 202.03 C 281.01 213.62 278.44 226.23 269.53 234.53 C 262.89 241.51 253.48 244.83 244.29 246.89 C 233.65 248.88 222.78 248.66 212.00 248.52 C 198.65 248.06 184.65 245.55 173.85 237.15 C 163.73 229.37 159.58 216.24 158.54 203.98 C 158.35 189.67 156.98 174.31 164.27 161.34 C 171.47 147.48 187.70 141.62 202.38 140.18 M 198.56 163.88 C 194.48 165.20 190.91 168.19 189.33 172.23 C 186.23 179.06 187.53 186.74 187.22 194.00 C 187.50 201.25 186.22 208.94 189.45 215.72 C 192.49 221.79 199.33 225.40 205.99 225.52 C 214.65 225.83 223.32 225.75 231.98 225.65 C 237.95 225.70 244.44 224.16 248.60 219.59 C 252.32 215.72 253.08 210.11 253.50 205.00 C 253.78 195.98 254.05 186.91 253.15 177.93 C 252.27 170.22 245.68 163.81 238.05 162.81 C 231.40 162.00 224.68 162.31 218.00 162.24 C 211.51 162.38 204.83 161.87 198.56 163.88 Z" />
<path fill="#f5f3ec" opacity="1.00" d=" M 1045.84 140.42 C 1055.47 138.75 1065.28 139.62 1075.00 139.39 C 1085.03 139.38 1094.98 141.02 1104.81 142.86 C 1104.91 150.35 1102.92 157.62 1101.56 164.92 C 1094.30 164.78 1087.25 162.71 1080.00 162.48 C 1070.66 162.16 1061.32 162.09 1051.99 162.46 C 1047.90 162.76 1043.33 163.18 1040.24 166.19 C 1037.88 168.39 1038.24 172.00 1038.76 174.88 C 1040.02 178.24 1043.84 179.23 1046.98 179.95 C 1059.58 182.64 1072.71 181.94 1085.15 185.58 C 1093.04 187.62 1100.71 191.88 1105.14 198.95 C 1110.13 210.47 1109.20 224.10 1103.03 235.00 C 1099.31 239.56 1094.09 242.66 1088.52 244.40 C 1076.10 248.32 1062.92 248.72 1050.00 248.58 C 1039.95 248.70 1029.87 248.15 1019.96 246.46 C 1017.05 245.97 1014.04 245.54 1011.46 244.03 C 1012.78 236.83 1014.03 229.55 1016.10 222.53 C 1022.80 222.93 1029.27 225.18 1036.00 225.41 C 1044.66 225.71 1053.32 225.83 1061.98 225.59 C 1066.74 225.50 1071.90 225.66 1076.07 222.99 C 1079.69 220.63 1080.85 215.23 1078.34 211.67 C 1076.35 208.55 1072.39 207.89 1069.08 207.09 C 1061.15 205.59 1053.12 204.59 1045.06 204.30 C 1033.93 202.75 1021.16 200.65 1014.07 190.93 C 1009.31 185.02 1010.29 177.06 1010.33 169.99 C 1010.38 163.28 1013.16 156.65 1017.87 151.87 C 1025.19 144.45 1035.76 141.56 1045.84 140.42 Z" />
<path fill="#f5f3ec" opacity="1.00" d=" M 1.87 142.35 C 12.92 142.38 23.98 142.30 35.03 142.34 C 39.14 141.96 40.90 146.42 43.06 149.10 C 53.71 167.01 64.07 185.11 73.95 203.46 C 79.62 193.50 84.70 183.22 90.44 173.31 C 96.79 162.66 102.46 151.57 109.74 141.51 C 121.24 141.68 132.74 141.46 144.23 141.63 C 144.36 176.53 144.34 211.44 144.25 246.34 C 135.64 246.40 127.03 246.56 118.43 246.22 C 118.41 224.13 118.40 202.05 118.44 179.97 C 118.46 177.55 117.99 175.18 117.43 172.85 C 109.47 185.96 102.28 199.52 95.07 213.05 C 90.69 221.20 87.01 229.70 82.42 237.74 C 75.22 237.65 68.02 237.78 60.83 237.62 C 52.09 218.82 42.93 200.21 33.04 181.99 C 31.37 178.21 29.42 174.54 26.63 171.47 C 25.87 196.19 26.69 220.95 26.21 245.68 C 18.10 246.34 9.95 246.35 1.84 245.67 C 1.64 211.23 1.59 176.79 1.87 142.35 Z" />
<path fill="#f5f3ec" opacity="1.00" d=" M 296.29 142.37 C 300.09 141.22 304.09 141.59 308.00 141.56 C 312.87 141.65 317.77 141.28 322.61 141.97 C 322.64 164.66 322.63 187.34 322.61 210.03 C 322.84 214.43 324.03 219.39 327.70 222.21 C 332.54 225.51 338.56 225.88 344.22 226.30 C 351.94 226.61 359.74 226.53 367.36 225.09 C 371.10 224.29 375.16 222.78 377.19 219.29 C 379.25 215.56 379.23 211.14 379.31 207.00 C 379.19 189.34 379.32 171.67 379.23 154.01 C 379.21 150.06 379.27 146.11 379.64 142.19 C 387.97 142.51 396.30 142.27 404.62 142.38 C 404.65 169.57 404.65 196.76 404.63 223.96 C 403.85 232.46 397.44 239.73 389.66 242.84 C 377.48 247.90 364.05 248.76 351.00 248.58 C 337.17 248.71 322.75 248.06 310.04 242.05 C 303.85 239.21 299.18 233.55 297.48 226.97 C 295.92 221.79 296.43 216.33 296.35 211.00 C 296.32 188.12 296.43 165.24 296.29 142.37 Z" />
<path fill="#f5f3ec" opacity="1.00" d=" M 544.74 143.03 C 545.04 142.68 545.64 141.98 545.95 141.63 C 576.31 141.53 606.69 141.52 637.05 141.63 C 637.41 141.94 638.13 142.56 638.49 142.87 C 638.68 149.70 638.53 156.54 638.51 163.37 C 615.94 163.46 593.36 163.33 570.79 163.44 C 570.79 169.49 570.32 175.60 571.19 181.62 C 587.28 181.55 603.37 181.59 619.46 181.60 C 619.64 188.57 619.46 195.56 619.59 202.53 C 603.72 202.78 587.85 202.44 571.99 202.70 C 571.70 203.04 571.11 203.73 570.82 204.07 C 570.61 210.68 570.61 217.32 570.82 223.93 C 571.12 224.26 571.72 224.94 572.02 225.28 C 594.21 225.57 616.42 225.17 638.61 225.47 C 638.27 232.38 639.07 239.36 638.21 246.23 C 608.14 246.65 578.04 246.26 547.95 246.42 C 545.86 246.97 544.06 245.13 544.59 243.05 C 544.73 209.71 544.42 176.36 544.74 143.03 Z" />
<path fill="#f5f3ec" opacity="1.00" d=" M 655.52 143.93 C 655.28 142.12 657.49 141.33 658.97 141.56 C 669.61 141.71 680.28 141.28 690.90 141.78 C 695.44 145.70 698.58 150.93 702.46 155.46 C 716.89 174.26 730.70 193.54 744.33 212.93 C 745.97 208.39 744.65 203.66 744.74 199.01 C 744.77 181.66 744.76 164.30 744.74 146.95 C 744.68 145.10 745.05 143.26 745.87 141.60 C 753.93 141.55 761.99 141.49 770.05 141.63 C 771.73 142.92 771.26 145.12 771.37 146.97 C 771.21 179.63 771.51 212.30 771.22 244.95 C 770.92 245.30 770.32 245.98 770.02 246.33 C 758.95 246.52 747.86 246.28 736.79 246.43 C 728.07 234.05 719.54 221.52 710.73 209.20 C 701.14 196.65 691.70 184.00 681.71 171.76 C 680.99 196.17 681.71 220.64 681.36 245.06 C 681.03 245.38 680.36 246.02 680.03 246.34 C 672.37 246.43 664.68 246.54 657.02 246.28 C 656.66 245.99 655.92 245.40 655.56 245.11 C 655.45 211.39 655.51 177.66 655.52 143.93 Z" />
<path fill="#f5f3ec" opacity="1.00" d=" M 790.47 142.37 L 790.94 141.60 C 798.63 141.52 806.34 141.56 814.04 141.58 C 815.84 141.38 816.84 143.38 816.51 144.95 C 816.44 178.33 816.57 211.73 816.44 245.11 C 816.08 245.41 815.36 246.01 815.01 246.31 C 807.32 246.54 799.63 246.37 791.94 246.39 C 790.16 246.66 789.56 244.39 789.71 243.02 C 789.70 211.00 789.75 178.98 789.69 146.96 C 789.71 145.40 789.60 143.75 790.47 142.37 Z" />
<path fill="#f5f3ec" opacity="1.00" d=" M 836.74 143.03 C 837.04 142.68 837.65 141.98 837.95 141.63 C 855.96 141.46 873.99 141.65 892.01 141.54 C 897.12 141.37 902.12 142.70 907.25 142.57 C 918.11 143.71 929.47 146.66 937.71 154.25 C 943.92 159.44 947.27 167.21 949.00 174.95 C 950.06 181.24 949.78 187.65 949.84 194.00 C 949.76 201.70 950.20 209.61 947.68 217.01 C 945.24 224.78 940.95 232.50 933.82 236.84 C 924.04 242.85 912.45 245.94 900.99 245.78 C 879.52 245.75 858.06 245.91 836.60 245.70 C 836.72 211.48 836.42 177.24 836.74 143.03 M 863.05 163.26 C 862.49 169.16 862.75 175.09 862.72 181.00 C 862.75 194.35 862.65 207.69 862.74 221.04 C 863.01 222.37 862.62 224.45 864.15 225.11 C 867.40 225.64 870.71 225.35 874.00 225.39 C 886.24 225.17 898.82 226.47 910.64 222.52 C 916.36 220.51 920.84 214.91 920.81 208.73 C 922.02 203.93 921.49 198.90 921.63 194.00 C 921.46 188.74 922.08 183.38 920.99 178.21 C 920.33 168.71 910.20 163.92 901.78 163.45 C 888.88 162.97 875.96 163.37 863.05 163.26 Z" />
<path fill="#f5f3ec" opacity="1.00" d=" M 966.63 144.96 C 966.15 143.18 967.52 142.21 969.18 142.42 C 976.69 142.25 984.21 142.47 991.73 142.38 C 991.89 176.83 991.75 211.28 991.80 245.73 C 983.46 245.69 975.12 245.72 966.79 245.70 C 966.40 212.13 966.70 178.54 966.63 144.96 Z" />
<path fill="#f5f3ec" opacity="1.00" d=" M 423.50 142.57 C 458.07 142.43 492.65 142.40 527.22 142.59 C 527.46 144.39 527.70 146.20 527.98 148.00 C 515.42 164.97 501.93 181.20 488.48 197.46 C 480.39 206.56 473.17 216.47 464.15 224.70 C 466.40 225.14 468.68 225.43 470.99 225.39 C 489.90 225.34 508.81 225.39 527.72 225.36 C 527.66 232.36 527.73 239.35 527.66 246.35 C 492.43 246.48 457.20 246.36 421.97 246.41 C 420.37 246.76 418.55 245.65 418.63 243.90 C 418.13 241.35 419.90 239.22 421.42 237.42 C 434.39 222.68 447.35 207.93 459.61 192.60 C 467.05 183.73 474.02 174.46 481.63 165.74 C 482.41 164.87 483.20 163.99 483.99 163.12 C 463.83 162.12 443.61 163.14 423.43 162.61 C 423.31 155.93 423.27 149.25 423.50 142.57 Z" />
<path fill="#f5f3ec" opacity="1.00" d=" M 677.38 277.56 C 698.12 277.43 718.87 277.43 739.61 277.56 C 739.59 281.34 739.60 285.12 739.61 288.90 C 732.15 289.65 724.66 289.09 717.19 289.31 C 716.78 289.33 715.96 289.38 715.55 289.40 C 715.46 304.13 715.48 318.86 715.57 333.59 C 710.89 334.44 706.10 334.44 701.42 333.59 C 701.51 318.86 701.53 304.13 701.45 289.40 C 701.04 289.38 700.21 289.33 699.80 289.31 C 692.33 289.09 684.84 289.64 677.39 288.91 C 677.39 285.12 677.39 281.34 677.38 277.56 Z" />
<path fill="#f5f3ec" opacity="1.00" d=" M 752.73 277.75 C 768.53 277.72 784.35 277.44 800.14 277.88 C 805.32 279.76 809.88 284.22 810.44 289.91 C 810.71 294.69 811.16 300.07 807.99 304.08 C 805.28 308.01 800.41 309.30 795.97 310.06 C 802.64 317.37 809.65 324.45 815.32 332.61 C 814.05 333.48 812.66 334.32 811.08 334.25 C 806.30 334.47 801.52 334.23 796.75 334.28 C 792.39 327.84 787.60 321.50 781.51 316.59 C 777.57 313.35 772.19 314.71 767.54 314.48 C 767.39 321.09 767.57 327.70 767.39 334.31 C 762.50 334.29 757.62 334.30 752.74 334.19 C 752.59 315.38 752.62 296.56 752.73 277.75 M 767.43 289.30 C 767.48 293.75 767.49 298.22 767.43 302.68 C 775.27 302.55 783.15 303.08 790.96 302.40 C 794.51 301.20 793.70 296.84 793.67 293.93 C 793.82 291.47 791.31 289.32 788.96 289.32 C 781.78 289.17 774.60 289.32 767.43 289.30 Z" />
<path fill="#f5f3ec" opacity="1.00" d=" M 851.31 278.35 C 855.81 277.49 860.44 277.90 865.00 277.80 C 868.74 277.71 872.56 278.06 875.98 279.70 C 878.79 288.33 882.61 296.58 886.16 304.92 C 890.42 314.24 894.42 323.69 899.46 332.63 C 894.43 335.36 888.54 334.22 883.10 333.97 C 882.83 333.48 882.28 332.48 882.01 331.98 C 880.62 328.52 879.76 324.71 877.35 321.77 C 870.94 320.99 864.44 321.71 858.00 321.47 C 854.00 321.62 849.86 320.91 845.96 322.00 C 843.69 325.43 843.05 329.60 841.15 333.21 C 836.37 335.37 830.83 333.98 825.75 334.10 C 826.83 330.76 827.91 327.41 829.04 324.09 C 829.75 322.48 830.45 320.87 831.13 319.25 C 836.23 309.76 840.09 299.68 844.97 290.07 C 847.07 286.18 848.24 281.64 851.31 278.35 M 859.39 289.32 C 856.33 295.96 853.18 302.59 850.99 309.58 C 857.98 309.83 864.99 309.81 871.99 309.60 C 869.49 302.82 866.71 296.14 864.35 289.32 C 862.69 289.31 861.03 289.30 859.39 289.32 Z" />
<path fill="#f5f3ec" opacity="1.00" d=" M 896.52 277.58 C 902.03 277.41 907.54 277.47 913.05 277.53 C 920.60 291.63 926.89 306.34 932.97 321.12 C 939.36 306.76 945.89 292.43 951.09 277.58 C 956.39 277.43 961.69 277.42 966.99 277.60 C 964.08 287.79 959.09 297.23 955.00 306.98 C 951.34 315.51 946.77 323.59 943.02 332.08 C 940.80 333.96 937.87 334.41 935.07 334.35 C 930.85 334.30 926.55 334.70 922.42 333.74 C 921.18 332.02 920.46 330.00 919.66 328.05 C 916.76 320.47 913.49 313.03 910.22 305.61 C 906.66 297.98 903.54 290.10 898.98 282.99 C 898.13 281.20 897.30 279.39 896.52 277.58 Z" />
<path fill="#f5f3ec" opacity="1.00" d=" M 980.66 280.97 C 980.53 279.54 980.85 277.04 982.91 277.47 C 999.47 277.51 1016.03 277.44 1032.59 277.51 C 1032.63 281.05 1032.78 284.60 1032.65 288.15 C 1031.60 289.62 1029.54 289.11 1028.02 289.30 C 1018.67 289.26 1009.33 289.30 999.98 289.25 C 998.51 289.47 996.66 288.79 995.50 289.95 C 995.36 292.63 995.36 295.33 995.55 298.02 C 996.76 299.03 998.51 298.47 999.98 298.66 C 1007.19 298.62 1014.40 298.59 1021.61 298.66 C 1022.42 302.62 1022.43 306.69 1021.52 310.64 C 1012.91 310.43 1004.29 310.64 995.68 310.51 C 995.46 314.35 995.34 318.19 995.51 322.04 L 996.22 322.56 C 1008.35 322.95 1020.50 322.48 1032.64 322.79 C 1032.66 326.65 1032.65 330.52 1032.66 334.39 C 1016.42 334.63 1000.17 334.39 983.93 334.52 C 982.24 335.00 980.54 333.82 980.70 332.02 C 980.63 315.00 980.72 297.98 980.66 280.97 Z" />
<path fill="#f5f3ec" opacity="1.00" d=" M 1052.71 277.80 C 1057.37 277.64 1062.04 277.61 1066.71 277.84 C 1067.05 292.45 1066.17 307.12 1067.15 321.70 L 1067.30 322.61 C 1077.75 322.93 1088.21 322.48 1098.66 322.83 C 1098.66 326.58 1098.66 330.33 1098.67 334.09 C 1083.36 334.40 1068.02 334.43 1052.72 334.07 C 1052.53 315.31 1052.54 296.56 1052.71 277.80 Z" />
</g>
<g id="#00182f47">
<path fill="#f5f3ec" opacity="0.28" d=" M 378.23 140.36 C 386.72 140.59 395.25 139.99 403.73 140.58 C 406.54 140.60 406.60 143.87 406.65 145.93 C 406.61 168.62 406.53 191.31 406.67 214.00 C 406.57 217.39 407.34 221.34 404.63 223.96 C 404.65 196.76 404.65 169.57 404.62 142.38 C 396.30 142.27 387.97 142.51 379.64 142.19 C 379.27 142.17 378.53 142.14 378.16 142.12 C 378.18 141.68 378.21 140.80 378.23 140.36 Z" />
</g>
<g id="#0026496e">
<path fill="#f5f3ec" opacity="0.43" d=" M 423.01 140.39 C 457.98 140.66 492.97 140.64 527.95 140.40 C 529.13 143.21 529.44 146.20 528.15 149.05 L 527.98 148.00 C 527.70 146.20 527.46 144.39 527.22 142.59 C 492.65 142.40 458.07 142.43 423.50 142.57 C 423.27 149.25 423.31 155.93 423.43 162.61 C 443.61 163.14 463.83 162.12 483.99 163.12 C 483.20 163.99 482.41 164.87 481.63 165.74 C 479.68 163.56 476.64 163.87 474.00 163.85 C 459.67 164.04 445.34 163.81 431.01 163.98 C 427.90 164.02 424.79 163.78 421.72 163.30 C 422.10 155.68 420.49 147.77 423.01 140.39 Z" />
</g>
<g id="#001f3c5a">
<path fill="#f5f3ec" opacity="0.35" d=" M 966.77 140.82 C 970.79 140.03 974.92 140.54 979.00 140.44 C 983.13 140.54 987.32 140.07 991.44 140.75 C 993.77 141.22 993.41 144.14 993.60 145.94 C 993.45 179.48 993.69 213.03 993.47 246.57 C 986.67 247.42 979.81 247.05 972.99 247.16 C 970.57 247.08 968.02 247.31 965.77 246.29 C 965.40 244.91 965.32 243.48 965.30 242.07 C 965.44 209.70 965.34 177.33 965.34 144.96 C 965.52 143.53 965.24 141.62 966.77 140.82 M 966.63 144.96 C 966.70 178.54 966.40 212.13 966.79 245.70 C 975.12 245.72 983.46 245.69 991.80 245.73 C 991.75 211.28 991.89 176.83 991.73 142.38 C 984.21 142.47 976.69 142.25 969.18 142.42 C 967.52 142.21 966.15 143.18 966.63 144.96 Z" />
</g>
<g id="#0025476b">
<path fill="#f5f3ec" opacity="0.42" d=" M 377.53 142.09 L 378.16 142.12 C 378.53 142.14 379.27 142.17 379.64 142.19 C 379.27 146.11 379.21 150.06 379.23 154.01 C 379.32 171.67 379.19 189.34 379.31 207.00 C 379.23 211.14 379.25 215.56 377.19 219.29 C 375.16 222.78 371.10 224.29 367.36 225.09 C 359.74 226.53 351.94 226.61 344.22 226.30 C 338.56 225.88 332.54 225.51 327.70 222.21 C 333.05 223.42 338.40 225.09 343.96 224.80 C 353.40 224.38 363.35 226.14 372.26 222.17 C 376.21 220.52 377.80 216.02 377.59 212.02 C 377.50 188.71 377.60 165.40 377.53 142.09 Z" />
</g>
<g id="#001d3854">
<path fill="#f5f3ec" opacity="0.33" d=" M 863.05 163.26 C 875.96 163.37 888.88 162.97 901.78 163.45 C 910.20 163.92 920.33 168.71 920.99 178.21 C 918.58 172.62 914.45 167.23 908.17 165.94 C 893.79 162.73 878.91 163.72 864.29 163.92 C 864.91 183.72 864.20 203.54 864.68 223.35 C 874.44 223.69 884.21 223.45 893.98 223.53 C 900.20 223.36 906.78 223.38 912.44 220.42 C 916.94 218.11 918.95 213.14 920.81 208.73 C 920.84 214.91 916.36 220.51 910.64 222.52 C 898.82 226.47 886.24 225.17 874.00 225.39 C 870.71 225.35 867.40 225.64 864.15 225.11 C 862.62 224.45 863.01 222.37 862.74 221.04 C 862.65 207.69 862.75 194.35 862.72 181.00 C 862.75 175.09 862.49 169.16 863.05 163.26 Z" />
</g>
<g id="#000a131d">
<path fill="#f5f3ec" opacity="0.11" d=" M 736.18 246.96 C 747.77 247.04 759.41 246.38 770.98 247.30 C 768.83 248.24 766.31 247.88 764.01 248.10 C 754.74 247.90 745.46 248.15 736.19 247.93 L 736.18 246.96 Z" />
</g>
<g id="#0025466a">
<path fill="#f5f3ec" opacity="0.42" d=" M 850.85 276.97 C 858.75 275.68 866.85 276.82 874.84 276.44 C 875.21 277.52 875.60 278.61 875.98 279.70 C 872.56 278.06 868.74 277.71 865.00 277.80 C 860.44 277.90 855.81 277.49 851.31 278.35 C 848.24 281.64 847.07 286.18 844.97 290.07 C 840.09 299.68 836.23 309.76 831.13 319.25 C 834.38 307.99 840.26 297.76 845.07 287.13 C 846.84 283.69 847.96 279.69 850.85 276.97 Z" />
</g>
</svg>
