<?xml version="1.0" encoding="UTF-8" ?>
<!DOCTYPE svg PUBLIC "-//W3C//DTD SVG 1.1//EN" "http://www.w3.org/Graphics/SVG/1.1/DTD/svg11.dtd">
<svg width="423pt" height="423pt" viewBox="0 0 423 423" version="1.1" xmlns="http://www.w3.org/2000/svg">
<g id="#ffffffff">
<path fill="#ffffff" opacity="1.00" d=" M 204.94 0.00 L 217.04 0.00 C 253.94 0.98 290.54 11.69 321.97 31.07 C 356.02 51.91 383.98 82.57 401.51 118.44 C 414.78 145.29 421.95 175.02 423.00 204.93 L 423.00 217.16 C 421.81 265.74 403.23 313.63 371.22 350.20 C 338.67 387.86 292.46 413.45 243.17 420.67 C 234.85 421.96 226.44 422.58 218.04 423.00 L 205.31 423.00 C 170.88 421.93 136.71 412.51 106.81 395.35 C 70.61 374.76 40.74 343.24 22.18 305.95 C 8.48 278.73 1.06 248.48 0.00 218.05 L 0.00 206.45 C 0.64 181.90 5.42 157.44 14.39 134.57 C 30.72 92.53 60.96 56.11 99.18 32.21 C 130.73 12.29 167.67 1.22 204.94 0.00 M 195.85 108.99 C 195.62 115.90 195.82 122.83 195.75 129.75 C 178.54 133.35 162.73 143.09 151.77 156.83 C 141.04 170.09 135.06 187.02 134.93 204.07 C 133.15 221.09 131.03 238.07 129.09 255.08 C 123.43 257.92 119.19 263.62 118.72 270.01 C 118.43 273.88 118.44 278.59 121.77 281.24 C 125.51 284.10 130.50 284.00 134.98 284.18 C 185.98 284.19 236.99 284.19 287.99 284.18 C 292.47 284.00 297.47 284.10 301.21 281.25 C 304.56 278.59 304.56 273.85 304.28 269.97 C 303.80 263.60 299.57 257.92 293.92 255.09 C 291.97 238.08 289.86 221.08 288.08 204.05 C 287.95 186.04 281.24 168.17 269.38 154.61 C 258.54 142.02 243.51 133.15 227.25 129.75 C 227.18 122.82 227.38 115.88 227.16 108.95 C 226.74 100.85 219.16 94.02 211.06 94.44 C 203.25 94.50 196.24 101.19 195.85 108.99 M 184.01 301.01 C 184.09 308.58 187.31 316.07 192.94 321.16 C 200.95 328.73 213.67 330.60 223.52 325.63 C 232.81 321.22 238.97 311.27 238.99 301.01 C 220.66 301.00 202.34 301.00 184.01 301.01 Z" />
</g>
</svg>
