<?xml version="1.0" encoding="UTF-8" ?>
<!DOCTYPE svg PUBLIC "-//W3C//DTD SVG 1.1//EN" "http://www.w3.org/Graphics/SVG/1.1/DTD/svg11.dtd">
<svg width="465pt" height="465pt" viewBox="0 0 465 465" version="1.1" xmlns="http://www.w3.org/2000/svg">
<g id="#ffffffff">
<path fill="#ffffff" opacity="1.00" d=" M 225.99 0.00 L 238.70 0.00 C 280.41 1.13 321.77 13.58 356.96 36.05 C 406.24 67.12 443.07 117.32 457.55 173.78 C 462.03 190.83 464.37 208.39 465.00 226.00 L 465.00 238.17 C 464.01 279.06 452.10 319.66 430.53 354.44 C 411.04 386.07 383.87 412.92 352.00 432.01 C 318.02 452.53 278.68 463.83 239.03 465.00 L 226.32 465.00 C 196.50 464.12 166.83 457.68 139.50 445.69 C 110.76 433.15 84.64 414.70 63.16 391.86 C 36.98 364.11 17.76 329.83 7.92 292.97 C 3.14 275.38 0.65 257.22 0.00 239.02 L 0.00 226.87 C 0.63 204.11 4.41 181.42 11.57 159.79 C 27.61 110.62 60.74 67.32 103.84 38.77 C 139.84 14.67 182.71 1.23 225.99 0.00 M 189.89 103.20 C 165.11 107.93 142.33 122.00 126.84 141.89 C 111.52 161.32 103.44 186.26 104.46 210.98 C 105.27 236.63 115.96 261.76 133.76 280.23 C 151.49 298.88 176.23 310.69 201.91 312.57 C 226.10 314.59 250.82 307.81 270.70 293.92 C 290.61 313.81 310.49 333.73 330.41 353.60 C 336.17 359.36 345.37 361.25 352.92 358.17 C 359.69 355.55 364.86 349.21 366.02 342.04 C 367.18 335.46 364.96 328.41 360.22 323.70 C 340.11 303.57 319.98 283.45 299.86 263.34 C 314.63 239.98 319.64 210.76 313.47 183.82 C 307.48 156.59 290.09 132.17 266.46 117.42 C 243.98 103.15 215.99 98.03 189.89 103.20 Z" />
<path fill="#ffffff" opacity="1.00" d=" M 196.49 136.78 C 210.12 134.14 224.53 135.49 237.38 140.79 C 252.27 146.87 264.97 158.14 272.77 172.21 C 280.52 185.99 283.42 202.41 280.95 218.02 C 278.37 234.59 269.78 250.17 257.06 261.11 C 244.93 271.70 229.13 278.01 213.02 278.58 C 199.22 279.19 185.27 275.64 173.44 268.51 C 159.60 260.25 148.70 247.19 143.11 232.07 C 137.15 216.15 137.14 198.10 143.07 182.17 C 151.42 159.13 172.38 141.26 196.49 136.78 Z" />
</g>
</svg>
