<?xml version="1.0" encoding="UTF-8" ?>
<!DOCTYPE svg PUBLIC "-//W3C//DTD SVG 1.1//EN" "http://www.w3.org/Graphics/SVG/1.1/DTD/svg11.dtd">
<svg width="523pt" height="523pt" viewBox="0 0 523 523" version="1.1" xmlns="http://www.w3.org/2000/svg">
<g id="#f6931eff">
<path fill="#f6931e" opacity="1.00" d=" M 253.98 0.00 L 268.03 0.00 C 305.26 1.05 342.28 9.89 375.77 26.23 C 428.30 51.70 471.81 95.29 497.11 147.91 C 513.22 181.18 521.92 217.90 523.00 254.82 L 523.00 268.67 C 521.82 307.72 512.09 346.54 494.15 381.28 C 466.38 435.49 419.01 479.37 362.76 502.77 C 332.88 515.33 300.64 522.07 268.26 523.00 L 255.01 523.00 C 210.69 521.81 166.68 509.37 128.54 486.73 C 97.34 510.49 56.80 522.77 17.72 517.00 C 11.10 516.48 6.85 508.71 9.63 502.78 C 11.48 498.21 16.68 497.00 20.44 494.53 C 42.31 481.42 57.58 459.77 68.20 437.03 C 64.28 433.87 61.28 429.79 58.07 425.96 C 21.95 381.69 1.42 325.25 0.00 268.18 L 0.00 254.25 C 0.80 231.42 4.27 208.65 10.83 186.75 C 27.15 131.15 62.90 81.68 110.12 48.17 C 151.88 18.27 202.69 1.53 253.98 0.00 M 257.57 121.03 C 256.49 128.75 255.39 136.48 254.33 144.21 C 283.43 148.26 311.25 161.12 333.04 180.87 C 357.78 203.01 374.76 233.61 380.28 266.36 C 387.98 265.04 395.67 263.69 403.36 262.35 C 397.15 225.85 378.69 191.65 351.72 166.30 C 326.08 141.85 292.65 125.84 257.57 121.03 M 161.44 170.70 C 157.62 171.54 154.25 173.75 151.48 176.45 C 145.58 182.21 139.92 188.22 133.95 193.90 C 128.40 198.83 124.32 205.51 123.22 212.90 C 121.34 225.73 124.22 238.74 128.43 250.83 C 139.31 281.86 158.14 309.60 180.46 333.53 C 203.68 358.38 231.95 378.49 263.12 392.11 C 275.72 397.53 289.15 401.50 302.95 401.86 C 309.40 402.07 316.02 400.90 321.69 397.72 C 328.87 393.79 333.40 386.70 339.43 381.38 C 344.69 375.80 351.82 371.04 353.62 363.12 C 355.36 356.08 351.52 349.11 346.48 344.44 C 336.71 334.59 326.92 324.77 317.06 315.03 C 313.39 311.30 308.34 308.62 303.00 308.86 C 297.80 309.02 293.11 311.89 289.56 315.53 C 283.57 321.55 277.50 327.50 271.61 333.61 C 270.44 334.80 268.88 336.27 267.05 335.53 C 246.73 326.47 229.49 311.74 214.60 295.41 C 204.55 284.09 194.68 272.13 188.98 257.94 C 188.00 256.24 188.68 254.24 190.10 253.05 C 196.53 246.84 202.86 240.52 209.09 234.10 C 212.74 230.37 215.52 225.37 215.31 220.02 C 215.15 214.76 212.22 210.06 208.59 206.44 C 198.58 196.41 188.58 186.38 178.53 176.39 C 174.14 172.00 167.67 169.19 161.44 170.70 M 254.53 181.22 C 253.44 188.95 252.36 196.68 251.28 204.40 C 267.00 206.57 282.00 213.57 293.75 224.25 C 307.09 236.18 316.35 252.65 319.26 270.34 C 326.99 269.12 334.68 267.69 342.39 266.37 C 339.38 248.64 331.63 231.74 320.09 217.94 C 303.79 198.12 279.97 184.70 254.53 181.22 Z" />
</g>
</svg>
